<svg viewBox="0 0 94 94" xmlns="http://www.w3.org/2000/svg" xmlns:xlink="http://www.w3.org/1999/xlink"><linearGradient id="a" gradientUnits="userSpaceOnUse" x1="28.04" x2="84.05" y1="45.29" y2="45.29"><stop offset=".1" stop-color="#2c90d9"/><stop offset=".3" stop-color="#3885de"/><stop offset=".62" stop-color="#5c77e3"/><stop offset=".86" stop-color="#776ee7"/><stop offset="1" stop-color="#816ae9"/></linearGradient><path d="m39.5 18.29h-22.91a5.78 5.78 0 0 0 -5.78 5.78v50.49a5.78 5.78 0 0 0 5.78 5.78h28.69v-56.27a5.78 5.78 0 0 0 -5.78-5.78z" fill="#083041"/><path d="m42.39 73.12h-23.39c-2.6 0-5.3-.57-5.3-3.17v-44.44h28.69z" fill="#d7effe"/><path d="m24.59 21.87h6.89" fill="#d7effe" stroke="#4285f4" stroke-miterlimit="10"/><path d="m82.25 25.51h-16.53a1.76 1.76 0 0 0 -1.24 3l4.33 4.33-8.81 8.86-17.59.2-13.71 13.67a2.24 2.24 0 0 0 0 3.16l6.3 6.34 12.29-12.26h17.38l12.06-12.05 4.32 4.32a1.75 1.75 0 0 0 3-1.24v-16.52a1.8 1.8 0 0 0 -1.8-1.81z" fill="url(#a)"/></svg>